# xmcd
#
# Track frame offsets: 
#        150
#        14735
#        31163
#        46934
#        61261
#        74999
#        88995
#        104738
#        119249
#        131484
#
# Disc length: 1937 seconds
#
# Revision: 0
# Processed by: cddbd v1.5.2PL0 Copyright (c) Steve Scherf et al.
# Submitted via: ExactAudioCopy v1.3
#
DISCID=9d078f0a
DTITLE=Slim Dusty - The Den Tapes
DYEAR=2015
DGENRE=Country
TTITLE0=Move Along Baldy
TTITLE1=Good Old Droving Days
TTITLE2=Rocky Ned
TTITLE3=Old Boko and Me
TTITLE4=Rover No More
TTITLE5=Where the White Faced Cattle Roam
TTITLE6=You’ll Never Be Missed
TTITLE7=Just Plain Folk
TTITLE8=My Old Pal
TTITLE9=Murrumbidgee Jack
EXTD=
EXTT0=
EXTT1=
EXTT2=
EXTT3=
EXTT4=
EXTT5=
EXTT6=
EXTT7=
EXTT8=
EXTT9=
PLAYORDER=
